<mxfile host="app.diagrams.net" agent="Mozilla/5.0 (Windows NT 10.0; Win64; x64) AppleWebKit/537.36 (KHTML, like Gecko) Chrome/137.0.0.0 Safari/537.36" version="27.1.1">
  <diagram name="Page-1" id="gN-oG7b6HpO0mjYtUOtD">
    <mxGraphModel dx="1261" dy="693" grid="1" gridSize="10" guides="1" tooltips="1" connect="1" arrows="1" fold="1" page="1" pageScale="1" pageWidth="850" pageHeight="1100" background="none" math="0" shadow="0">
      <root>
        <mxCell id="0" />
        <mxCell id="1" parent="0" />
        <mxCell id="PK1BnZjrUv6jQ3VVec2v-1" value="Employee" style="rounded=0;whiteSpace=wrap;html=1;" vertex="1" parent="1">
          <mxGeometry x="240" y="310" width="60" height="30" as="geometry" />
        </mxCell>
        <mxCell id="PK1BnZjrUv6jQ3VVec2v-2" value="Salary" style="ellipse;whiteSpace=wrap;html=1;" vertex="1" parent="1">
          <mxGeometry x="290" y="480" width="80" height="20" as="geometry" />
        </mxCell>
        <mxCell id="PK1BnZjrUv6jQ3VVec2v-3" value="Emp_name" style="ellipse;whiteSpace=wrap;html=1;" vertex="1" parent="1">
          <mxGeometry x="75" y="410" width="75" height="20" as="geometry" />
        </mxCell>
        <mxCell id="PK1BnZjrUv6jQ3VVec2v-4" value="Sex" style="ellipse;whiteSpace=wrap;html=1;" vertex="1" parent="1">
          <mxGeometry x="60" y="330" width="75" height="20" as="geometry" />
        </mxCell>
        <mxCell id="PK1BnZjrUv6jQ3VVec2v-5" value="Address" style="ellipse;whiteSpace=wrap;html=1;" vertex="1" parent="1">
          <mxGeometry x="190" y="400" width="80" height="20" as="geometry" />
        </mxCell>
        <mxCell id="PK1BnZjrUv6jQ3VVec2v-7" value="" style="endArrow=none;html=1;rounded=0;" edge="1" parent="1">
          <mxGeometry width="50" height="50" relative="1" as="geometry">
            <mxPoint x="510" y="520" as="sourcePoint" />
            <mxPoint x="510" y="520" as="targetPoint" />
          </mxGeometry>
        </mxCell>
        <mxCell id="PK1BnZjrUv6jQ3VVec2v-10" value="" style="endArrow=none;html=1;rounded=0;labelBackgroundColor=none;fontColor=none;noLabel=1;" edge="1" parent="1" source="PK1BnZjrUv6jQ3VVec2v-2" target="PK1BnZjrUv6jQ3VVec2v-1">
          <mxGeometry width="50" height="50" relative="1" as="geometry">
            <mxPoint x="240" y="480" as="sourcePoint" />
            <mxPoint x="230" y="420" as="targetPoint" />
            <Array as="points" />
          </mxGeometry>
        </mxCell>
        <mxCell id="PK1BnZjrUv6jQ3VVec2v-12" value="" style="endArrow=none;html=1;rounded=0;exitX=0;exitY=0.5;exitDx=0;exitDy=0;" edge="1" parent="1" source="PK1BnZjrUv6jQ3VVec2v-1" target="PK1BnZjrUv6jQ3VVec2v-3">
          <mxGeometry width="50" height="50" relative="1" as="geometry">
            <mxPoint x="240" y="350" as="sourcePoint" />
            <mxPoint x="440" y="460" as="targetPoint" />
          </mxGeometry>
        </mxCell>
        <mxCell id="PK1BnZjrUv6jQ3VVec2v-15" value="" style="endArrow=none;html=1;rounded=0;exitX=0.5;exitY=0;exitDx=0;exitDy=0;" edge="1" parent="1" source="PK1BnZjrUv6jQ3VVec2v-5" target="PK1BnZjrUv6jQ3VVec2v-1">
          <mxGeometry width="50" height="50" relative="1" as="geometry">
            <mxPoint x="390" y="510" as="sourcePoint" />
            <mxPoint x="440" y="460" as="targetPoint" />
          </mxGeometry>
        </mxCell>
        <mxCell id="PK1BnZjrUv6jQ3VVec2v-16" value="" style="endArrow=none;html=1;rounded=0;exitX=1;exitY=0.5;exitDx=0;exitDy=0;entryX=0;entryY=0.5;entryDx=0;entryDy=0;" edge="1" parent="1" source="PK1BnZjrUv6jQ3VVec2v-4" target="PK1BnZjrUv6jQ3VVec2v-1">
          <mxGeometry width="50" height="50" relative="1" as="geometry">
            <mxPoint x="390" y="510" as="sourcePoint" />
            <mxPoint x="440" y="460" as="targetPoint" />
          </mxGeometry>
        </mxCell>
        <mxCell id="PK1BnZjrUv6jQ3VVec2v-17" value="Department" style="rounded=0;whiteSpace=wrap;html=1;" vertex="1" parent="1">
          <mxGeometry x="460" y="470" width="120" height="30" as="geometry" />
        </mxCell>
        <mxCell id="PK1BnZjrUv6jQ3VVec2v-18" value="Control" style="rhombus;whiteSpace=wrap;html=1;" vertex="1" parent="1">
          <mxGeometry x="472.5" y="540" width="95" height="40" as="geometry" />
        </mxCell>
        <mxCell id="PK1BnZjrUv6jQ3VVec2v-19" value="" style="endArrow=none;html=1;rounded=0;entryX=0.5;entryY=1;entryDx=0;entryDy=0;exitX=0.5;exitY=0;exitDx=0;exitDy=0;" edge="1" parent="1" source="PK1BnZjrUv6jQ3VVec2v-18" target="PK1BnZjrUv6jQ3VVec2v-17">
          <mxGeometry width="50" height="50" relative="1" as="geometry">
            <mxPoint x="390" y="510" as="sourcePoint" />
            <mxPoint x="440" y="460" as="targetPoint" />
          </mxGeometry>
        </mxCell>
        <mxCell id="PK1BnZjrUv6jQ3VVec2v-20" value="Project" style="rounded=0;whiteSpace=wrap;html=1;" vertex="1" parent="1">
          <mxGeometry x="460" y="620" width="113.75" height="30" as="geometry" />
        </mxCell>
        <mxCell id="PK1BnZjrUv6jQ3VVec2v-22" value="" style="endArrow=none;html=1;rounded=0;entryX=0.5;entryY=1;entryDx=0;entryDy=0;exitX=0.5;exitY=0;exitDx=0;exitDy=0;" edge="1" parent="1" source="PK1BnZjrUv6jQ3VVec2v-20" target="PK1BnZjrUv6jQ3VVec2v-18">
          <mxGeometry width="50" height="50" relative="1" as="geometry">
            <mxPoint x="390" y="510" as="sourcePoint" />
            <mxPoint x="440" y="460" as="targetPoint" />
          </mxGeometry>
        </mxCell>
        <mxCell id="PK1BnZjrUv6jQ3VVec2v-23" value="Dep_ID" style="ellipse;whiteSpace=wrap;html=1;" vertex="1" parent="1">
          <mxGeometry x="630" y="500" width="120" height="30" as="geometry" />
        </mxCell>
        <mxCell id="PK1BnZjrUv6jQ3VVec2v-24" value="" style="endArrow=none;html=1;rounded=0;entryX=1;entryY=0.5;entryDx=0;entryDy=0;exitX=0.5;exitY=0;exitDx=0;exitDy=0;" edge="1" parent="1" source="PK1BnZjrUv6jQ3VVec2v-23" target="PK1BnZjrUv6jQ3VVec2v-17">
          <mxGeometry width="50" height="50" relative="1" as="geometry">
            <mxPoint x="390" y="510" as="sourcePoint" />
            <mxPoint x="440" y="460" as="targetPoint" />
          </mxGeometry>
        </mxCell>
        <mxCell id="PK1BnZjrUv6jQ3VVec2v-25" value="Dep_name" style="ellipse;whiteSpace=wrap;html=1;" vertex="1" parent="1">
          <mxGeometry x="630" y="560" width="120" height="30" as="geometry" />
        </mxCell>
        <mxCell id="PK1BnZjrUv6jQ3VVec2v-27" value="" style="endArrow=none;html=1;rounded=0;entryX=1;entryY=0.5;entryDx=0;entryDy=0;exitX=0.364;exitY=0.052;exitDx=0;exitDy=0;exitPerimeter=0;" edge="1" parent="1" source="PK1BnZjrUv6jQ3VVec2v-25" target="PK1BnZjrUv6jQ3VVec2v-17">
          <mxGeometry width="50" height="50" relative="1" as="geometry">
            <mxPoint x="640" y="550" as="sourcePoint" />
            <mxPoint x="440" y="460" as="targetPoint" />
          </mxGeometry>
        </mxCell>
        <mxCell id="PK1BnZjrUv6jQ3VVec2v-28" value="Proj_ID" style="ellipse;whiteSpace=wrap;html=1;" vertex="1" parent="1">
          <mxGeometry x="630" y="630" width="120" height="30" as="geometry" />
        </mxCell>
        <mxCell id="PK1BnZjrUv6jQ3VVec2v-29" value="" style="endArrow=none;html=1;rounded=0;entryX=1;entryY=0.5;entryDx=0;entryDy=0;exitX=0;exitY=0.5;exitDx=0;exitDy=0;" edge="1" parent="1" source="PK1BnZjrUv6jQ3VVec2v-28" target="PK1BnZjrUv6jQ3VVec2v-20">
          <mxGeometry width="50" height="50" relative="1" as="geometry">
            <mxPoint x="390" y="610" as="sourcePoint" />
            <mxPoint x="440" y="560" as="targetPoint" />
          </mxGeometry>
        </mxCell>
        <mxCell id="PK1BnZjrUv6jQ3VVec2v-30" value="proj_name" style="ellipse;whiteSpace=wrap;html=1;" vertex="1" parent="1">
          <mxGeometry x="650" y="680" width="120" height="30" as="geometry" />
        </mxCell>
        <mxCell id="PK1BnZjrUv6jQ3VVec2v-31" value="" style="endArrow=none;html=1;rounded=0;entryX=1;entryY=0.5;entryDx=0;entryDy=0;exitX=0;exitY=0.5;exitDx=0;exitDy=0;" edge="1" parent="1" source="PK1BnZjrUv6jQ3VVec2v-30" target="PK1BnZjrUv6jQ3VVec2v-20">
          <mxGeometry width="50" height="50" relative="1" as="geometry">
            <mxPoint x="390" y="610" as="sourcePoint" />
            <mxPoint x="440" y="560" as="targetPoint" />
          </mxGeometry>
        </mxCell>
        <mxCell id="PK1BnZjrUv6jQ3VVec2v-32" value="location" style="ellipse;whiteSpace=wrap;html=1;" vertex="1" parent="1">
          <mxGeometry x="550" y="700" width="120" height="30" as="geometry" />
        </mxCell>
        <mxCell id="PK1BnZjrUv6jQ3VVec2v-35" value="" style="endArrow=none;html=1;rounded=0;entryX=1;entryY=0.5;entryDx=0;entryDy=0;exitX=0.5;exitY=0;exitDx=0;exitDy=0;" edge="1" parent="1" source="PK1BnZjrUv6jQ3VVec2v-32" target="PK1BnZjrUv6jQ3VVec2v-20">
          <mxGeometry width="50" height="50" relative="1" as="geometry">
            <mxPoint x="390" y="610" as="sourcePoint" />
            <mxPoint x="440" y="560" as="targetPoint" />
          </mxGeometry>
        </mxCell>
        <mxCell id="PK1BnZjrUv6jQ3VVec2v-36" value="Work&lt;div&gt;on&lt;/div&gt;" style="rhombus;whiteSpace=wrap;html=1;" vertex="1" parent="1">
          <mxGeometry x="390" y="520" width="80" height="50" as="geometry" />
        </mxCell>
        <mxCell id="PK1BnZjrUv6jQ3VVec2v-37" value="" style="endArrow=none;html=1;rounded=0;entryX=1;entryY=0.5;entryDx=0;entryDy=0;exitX=0;exitY=0.5;exitDx=0;exitDy=0;" edge="1" parent="1" source="PK1BnZjrUv6jQ3VVec2v-20" target="PK1BnZjrUv6jQ3VVec2v-36">
          <mxGeometry width="50" height="50" relative="1" as="geometry">
            <mxPoint x="320" y="610" as="sourcePoint" />
            <mxPoint x="370" y="560" as="targetPoint" />
          </mxGeometry>
        </mxCell>
        <mxCell id="PK1BnZjrUv6jQ3VVec2v-38" value="" style="endArrow=none;html=1;rounded=0;entryX=0.5;entryY=0;entryDx=0;entryDy=0;exitX=1;exitY=0.5;exitDx=0;exitDy=0;" edge="1" parent="1" source="PK1BnZjrUv6jQ3VVec2v-1" target="PK1BnZjrUv6jQ3VVec2v-36">
          <mxGeometry width="50" height="50" relative="1" as="geometry">
            <mxPoint x="320" y="510" as="sourcePoint" />
            <mxPoint x="370" y="460" as="targetPoint" />
            <Array as="points">
              <mxPoint x="430" y="320" />
            </Array>
          </mxGeometry>
        </mxCell>
        <mxCell id="PK1BnZjrUv6jQ3VVec2v-39" value="Birthday" style="ellipse;whiteSpace=wrap;html=1;" vertex="1" parent="1">
          <mxGeometry x="20" y="370" width="90" height="20" as="geometry" />
        </mxCell>
        <mxCell id="PK1BnZjrUv6jQ3VVec2v-40" value="" style="endArrow=none;html=1;rounded=0;entryX=0;entryY=0.5;entryDx=0;entryDy=0;exitX=1;exitY=0.5;exitDx=0;exitDy=0;" edge="1" parent="1" source="PK1BnZjrUv6jQ3VVec2v-39" target="PK1BnZjrUv6jQ3VVec2v-1">
          <mxGeometry width="50" height="50" relative="1" as="geometry">
            <mxPoint x="320" y="510" as="sourcePoint" />
            <mxPoint x="370" y="460" as="targetPoint" />
          </mxGeometry>
        </mxCell>
        <mxCell id="PK1BnZjrUv6jQ3VVec2v-41" value="Supervisor" style="rhombus;whiteSpace=wrap;html=1;" vertex="1" parent="1">
          <mxGeometry x="100" y="610" width="140" height="40" as="geometry" />
        </mxCell>
        <mxCell id="PK1BnZjrUv6jQ3VVec2v-42" value="" style="endArrow=none;html=1;rounded=0;entryX=0.5;entryY=1;entryDx=0;entryDy=0;exitX=1;exitY=0.5;exitDx=0;exitDy=0;" edge="1" parent="1" source="PK1BnZjrUv6jQ3VVec2v-41" target="PK1BnZjrUv6jQ3VVec2v-1">
          <mxGeometry width="50" height="50" relative="1" as="geometry">
            <mxPoint x="320" y="510" as="sourcePoint" />
            <mxPoint x="370" y="460" as="targetPoint" />
          </mxGeometry>
        </mxCell>
        <mxCell id="PK1BnZjrUv6jQ3VVec2v-43" value="" style="endArrow=none;html=1;rounded=0;exitX=0;exitY=0.5;exitDx=0;exitDy=0;entryX=0;entryY=0.5;entryDx=0;entryDy=0;" edge="1" parent="1" source="PK1BnZjrUv6jQ3VVec2v-41" target="PK1BnZjrUv6jQ3VVec2v-1">
          <mxGeometry width="50" height="50" relative="1" as="geometry">
            <mxPoint x="320" y="510" as="sourcePoint" />
            <mxPoint x="260" y="290" as="targetPoint" />
            <Array as="points">
              <mxPoint x="160" y="420" />
            </Array>
          </mxGeometry>
        </mxCell>
      </root>
    </mxGraphModel>
  </diagram>
</mxfile>
